Coordinates
version=1
nRows=6
nColumns=40
inDegrees=yes

Units are S.I. units (second, meters, Newtons, ...)
If the header above contains a line with 'inDegrees', this indicates whether rotational values are in degrees (yes) or radians (no).

endheader
time	pelvis_tilt	pelvis_list	pelvis_rotation	pelvis_tx	pelvis_ty	pelvis_tz	hip_flexion_r	hip_adduction_r	hip_rotation_r	knee_angle_r	knee_angle_r_beta	ankle_angle_r	subtalar_angle_r	mtp_angle_r	hip_flexion_l	hip_adduction_l	hip_rotation_l	knee_angle_l	knee_angle_l_beta	ankle_angle_l	subtalar_angle_l	mtp_angle_l	lumbar_extension	lumbar_bending	lumbar_rotation	arm_flex_r	arm_add_r	arm_rot_r	elbow_flex_r	pro_sup_r	wrist_flex_r	wrist_dev_r	arm_flex_l	arm_add_l	arm_rot_l	elbow_flex_l	pro_sup_l	wrist_flex_l	wrist_dev_l
      8.97499999999999964473	      8.17448699880094231673	     -7.29064499643169661169	    179.41885437204092568209	      0.29748248706261698482	      0.91020051711552019125	     -0.61980598053709146100	     31.62478557838180748263	    -14.07474867417644937007	     -5.76652373230954751193	     22.73147259790055585427	      0.39673904066023374382	     -0.20516314198395632640	      0.00000000000000000000	      0.00000000000000000000	     26.51766619661957946619	     -1.21381082862413647305	    -15.71131185046342437772	     17.89977803504228504039	      0.31241006208764882102	     -3.03380203932443670567	      0.00000000000000000000	      0.00000000000000000000	    -27.24113307323736421495	     -6.81550214141323973394	     -8.87349682788371119102	     28.34447196622797093823	     -1.20648619221419073355	     53.38362048883027455304	      4.55481930868817297409	     11.53963509116738528348	      0.00000000000000000000	      0.00000000000000000000	     31.88800903849454826400	    -11.36014570146982016752	     71.96484208123712278393	      4.12533492290826409032	     82.60896639972524724271	      0.00000000000000000000	      0.00000000000000000000
      8.98000000000000042633	      8.03592290970100897596	     -7.33755841856544055446	    179.36031242273747920990	      0.29636958331761936725	      0.91057418872189610504	     -0.61977503600491801183	     31.38650559859877731128	    -14.13674696033129229988	     -5.82934476277030544367	     22.69056922611894577813	      0.39602514214747736032	     -0.10438750671472327158	      0.00000000000000000000	      0.00000000000000000000	     26.27769163332782653697	     -1.17309609924214708343	    -15.77224873666638416125	     17.89139256857933801825	      0.31226370808855480332	     -2.95784173465271305048	      0.00000000000000000000	      0.00000000000000000000	    -26.79237428205262006031	     -6.88492361457725809970	     -8.81220620236231866329	     27.95382481107754912841	     -1.24616428690868596973	     53.36329178173171072785	      4.49927979726929194726	     11.53581796085950728070	      0.00000000000000000000	      0.00000000000000000000	     31.46466904850976575858	    -11.31812037099910384086	     71.93514192196207091001	      4.14447547483835432303	     82.61893939710620315964	      0.00000000000000000000	      0.00000000000000000000
      8.98499999999999943157	      7.89862427879476580728	     -7.38204470868518303206	    179.40981536029150333889	      0.29523618591838518554	      0.91092812147171509096	     -0.61955668341010994293	     31.08760910784675601803	    -14.25197233176637645613	     -6.01366067811496574080	     22.61163932481102989414	      0.39464755549138003099	      0.07778925606545493421	      0.00000000000000000000	      0.00000000000000000000	     26.03935972563025913473	     -1.06276498277399333858	    -15.62994110444597772869	     17.85448452681113096219	      0.31161954123923601978	     -2.85868821133570971682	      0.00000000000000000000	      0.00000000000000000000	    -26.35659567983022100179	     -6.91048523076675458299	     -8.85619616458573943873	     27.55234707429050544647	     -1.28239021610762526926	     53.34469190449418363187	      4.50892425016707942831	     11.54566028044890835247	      0.00000000000000000000	      0.00000000000000000000	     31.07334083462418305999	    -11.34702607622396186571	     71.88782676623529255266	      4.12597873663818326406	     82.62892608062597332719	      0.00000000000000000000	      0.00000000000000000000
      8.99000000000000021316	      7.73709681226145651323	     -7.38320796373372445487	    179.40407491475556867044	      0.29419454425366786676	      0.91129152267711133195	     -0.61945891169394717846	     30.79887758363218352997	    -14.29849647540694412839	     -6.18003032694101595013	     22.56679756415546833637	      0.39386491912554921768	      0.20277145429458551251	      0.00000000000000000000	      0.00000000000000000000	     25.77446944436522002775	     -1.03608784337342374471	    -15.60446556570557774535	     17.81544756986624022943	      0.31093821781058844644	     -2.78400913097480762204	      0.00000000000000000000	      0.00000000000000000000	    -25.95383240571615601766	     -6.90146939330118769362	     -8.85669876915416054430	     27.22075744648574513462	     -1.32826990361544883257	     53.33109120506738065615	      4.53731620915800526461	     11.55966284761172957474	      0.00000000000000000000	      0.00000000000000000000	     30.65696171804084002588	    -11.33586364162563420166	     71.82364693960278145823	      4.15018486534343633565	     82.63885155934781323595	      0.00000000000000000000	      0.00000000000000000000
      8.99499999999999921840	      7.56266901170634042728	     -7.43511841443442289545	    179.34423256259336199037	      0.29305229469015908750	      0.91163219218395696863	     -0.61947008662233338239	     30.50883566119303580422	    -14.34384692999585730888	     -6.12967342543293280954	     22.51745649728091080988	      0.39300375505214146798	      0.31389354392718116227	      0.00000000000000000000	      0.00000000000000000000	     25.51172099266003101548	     -0.99571942511780719975	    -15.67747233449650323678	     17.83382817605147252493	      0.31125901990703314093	     -2.69981629271366951883	      0.00000000000000000000	      0.00000000000000000000	    -25.53932448819757894398	     -6.97349258370855640266	     -8.80656148187354581580	     26.92311421593447562373	     -1.38817147080962133288	     53.31214212143879649375	      4.51357009679734488827	     11.56133642655142423905	      0.00000000000000000000	      0.00000000000000000000	     30.23024346943728346560	    -11.26486958936413884658	     71.77734929272253339150	      4.19810939646004577241	     82.64770808878532193376	      0.00000000000000000000	      0.00000000000000000000
      9.00000000000000000000	      7.41690475571524121534	     -7.45286441088414886025	    179.34758776952332937071	      0.29189932997465684039	      0.91197406204467312829	     -0.61938066587625151271	     30.20201090321634751490	    -14.41373193141141584306	     -6.36564615783135145932	     22.41678877960257665336	      0.39124677192818646532	      0.50734422408664314741	      0.00000000000000000000	      0.00000000000000000000	     25.26639534304058898329	     -0.95465646028489925534	    -15.70780680719490618458	     17.82192317503141509860	      0.31105123844177984260	     -2.58988140153737234073	      0.00000000000000000000	      0.00000000000000000000	    -25.11589701949929676061	     -6.99217332488756238007	     -8.78975343185111235300	     26.53086729716063274509	     -1.42570454327981499532	     53.29482176937445103704	      4.52313295254950098467	     11.57212860557507916326	      0.00000000000000000000	      0.00000000000000000000	     29.82980050021467022248	    -11.29881197707231876848	     71.70928966682171790126	      4.20876837846438789370	     82.65276525023040221640	      0.00000000000000000000	      0.00000000000000000000
